<?xml version="1.0" encoding="UTF-8"?>
<!DOCTYPE svg PUBLIC "-//W3C//DTD SVG 1.1//EN" "http://www.w3.org/Graphics/SVG/1.1/DTD/svg11.dtd">
<!-- Creator: CorelDRAW 2018 (64-Bit) -->
<svg xmlns="http://www.w3.org/2000/svg" xml:space="preserve" width="7.33446in" height="7.94733in" version="1.1" style="shape-rendering:geometricPrecision; text-rendering:geometricPrecision; image-rendering:optimizeQuality; fill-rule:evenodd; clip-rule:evenodd"
viewBox="0 0 7334.46 7947.33"
 xmlns:xlink="http://www.w3.org/1999/xlink">
 <defs>
  <style type="text/css">
   <![CDATA[
    .fil2 {fill:none}
    .fil5 {fill:black}
    .fil1 {fill:#2A8910}
    .fil0 {fill:#FFD000}
    .fil3 {fill:white}
    .fil4 {fill:black;fill-rule:nonzero}
   ]]>
  </style>
    <clipPath id="id0">
     <path d="M62.56 498.68c1173.2,-298.85 2369.14,-486.54 3601,-498.6l0 -0.08 3.67 0.04 3.67 -0.04 0 0.08c1231.86,12.06 2427.8,199.75 3601,498.6 405.03,3325.97 -1198.28,6212.8 -3604.19,7448.65l-0.48 -0.19 -0.48 0.19c-2405.91,-1235.85 -4009.22,-4122.68 -3604.19,-7448.65z"/>
    </clipPath>
 </defs>
 <g id="Layer_x0020_1">
  <metadata id="CorelCorpID_0Corel-Layer"/>
  <g id="_2456995195552">
   <path class="fil0" d="M62.56 498.68c1173.2,-298.85 2369.14,-486.54 3601,-498.6l0 -0.08 3.67 0.04 3.67 -0.04 0 0.08c1231.86,12.06 2427.8,199.75 3601,498.6 405.03,3325.97 -1198.28,6212.8 -3604.19,7448.65l-0.48 -0.19 -0.48 0.19c-2405.91,-1235.85 -4009.22,-4122.68 -3604.19,-7448.65z"/>
   <g style="clip-path:url(#id0)">
    <g>
     <path id="1" class="fil1" d="M62.56 498.68c1173.2,-298.85 2369.14,-486.54 3601,-498.6l0 -0.08 3.67 0.04 3.67 -0.04 0 0.08c1231.86,12.06 2427.8,199.75 3601,498.6 24.34,199.9 41.25,398.16 51.34,594.62 -1991.87,144.76 -4717.95,836.43 -7243.37,1535.85l-3.94 0.56c-94.09,-680.09 -103.03,-1394.76 -13.37,-2131.04z"/>
    </g>
   </g>
   <path class="fil2" d="M62.56 498.68c1173.2,-298.85 2369.14,-486.54 3601,-498.6l0 -0.08 3.67 0.04 3.67 -0.04 0 0.08c1231.86,12.06 2427.8,199.75 3601,498.6 405.03,3325.97 -1198.28,6212.8 -3604.19,7448.65l-0.48 -0.19 -0.48 0.19c-2405.91,-1235.85 -4009.22,-4122.68 -3604.19,-7448.65z"/>
   <path class="fil3" d="M2228.89 610.67l65.23 81.79 104.61 0.13 -57.63 87.31 32.2 99.54 -100.85 -27.83 -84.71 61.38 -4.7 -104.51 -84.55 -61.6 97.94 -36.76 32.46 -99.45zm-1998.2 529.64l1118.14 -455.22 506.44 204.85c-502.65,163.12 -946.22,613.42 -1123.83,745.43l8.54 -281.67 -509.28 -213.39zm480.83 751.12c459.58,-591.44 929.8,-994.31 1419.73,-1047.01 -514.81,205.27 -861.39,595.06 -1140.91,1058.39l-278.82 -11.38zm1539.72 -669.33l-1.48 522.63 145.49 76.66 -94.59 -625.18 141.53 -74.13 -463.08 -183.04c-250.79,146.57 -468.34,351.96 -664.89,594.49 251.54,8.51 467.59,87.96 639.86,255.01l-3.13 -414.58c-22.44,-43.92 -78.22,-67.59 -154.88,-94.81 71.37,3.35 135.67,17.93 186.17,83.87l269 -140.91z"/>
   <path class="fil3" d="M3329.27 980.3l981.91 0 90 358.93 -1151.91 0 80 -358.93zm-1.58 -611.92l988.24 0 0 583.46 -988.24 0 0 -583.46zm71.15 77.48l841.19 0 0 442.73 -841.19 0 0 -442.73zm338.42 770.04l173.02 0 15.86 63.24 -202.97 0 14.09 -63.24z"/>
   <path class="fil3" d="M5660.66 557.44l3.35 510.19c-83.98,-69.04 -163.85,-105.13 -238.91,-102.71 -44.92,2.61 -73.41,-13.4 -73.68,-61.4l-5.58 -424.23c-2.89,-36.77 17.78,-52.91 62.52,-48 99.58,2.66 185.48,40.14 252.31,126.15zm52.45 0l-3.35 510.19c83.98,-69.04 163.85,-105.13 238.91,-102.71 44.92,2.61 73.41,-13.4 73.68,-61.4l5.58 -424.23c2.89,-36.77 -17.78,-52.91 -62.52,-48 -99.58,2.66 -185.48,40.14 -252.31,126.15zm54.7 532.52c98.45,-19.35 192.93,-20.09 282.45,2.23 51.41,11.83 81.45,-3.65 79.26,-60.29l2.23 -443.21c1.18,-36.2 -19.05,-53.85 -62.52,-51.35l-0.54 362.83c0.22,76.65 -30.55,104.61 -80.96,112.76 -92.95,-6.06 -165.67,20.57 -219.93,77.03zm-161.85 0c-98.45,-19.35 -192.93,-20.09 -282.45,2.23 -51.41,11.83 -81.45,-3.65 -79.26,-60.29l-2.23 -443.21c-1.18,-36.2 19.05,-53.85 62.52,-51.35l0.54 362.83c-0.22,76.65 30.55,104.61 80.96,112.76 92.95,-6.06 165.67,20.57 219.93,77.03z"/>
   <path class="fil4" d="M5213.06 4476.31c0,20.54 16.44,39.04 39.04,39.04l772.49 0c22.6,0 39.03,-18.49 39.03,-39.04l0 -223.94c0,-20.55 -16.43,-39.04 -39.03,-39.04l-488.97 0 0 -1097.09c0,-20.55 -18.49,-39.04 -39.04,-39.04l-244.48 0c-22.6,0 -39.04,18.49 -39.04,39.04l0 1360.07zm-4102.22 -673.23c0,431.19 347.11,773.98 778.29,773.98 191.88,0 377.29,-66.83 523.89,-209.13 15.09,-15.09 17.25,-43.12 2.16,-58.21l-168.16 -178.94c-12.94,-15.09 -40.96,-15.09 -56.06,-2.16 -77.61,66.83 -187.57,103.48 -288.89,103.48 -243.62,0 -424.72,-198.35 -424.72,-437.65 0,-241.46 178.94,-444.12 422.56,-444.12 105.64,0 211.28,38.81 291.05,109.95 15.09,15.09 38.81,15.09 53.9,0l168.16 -174.63c17.25,-17.25 17.25,-43.12 -2.15,-60.37 -146.61,-133.67 -306.14,-200.5 -521.74,-200.5 -431.19,0 -778.29,347.1 -778.29,778.29zm1505.44 689.85c0,20.74 16.59,39.41 37.33,39.41l506.1 0c400.31,0 728.03,-325.65 728.03,-728.03 0,-398.24 -327.72,-723.89 -728.03,-723.89l-506.1 0c-20.74,0 -37.33,18.67 -37.33,39.41l0 1373.1zm323.57 -267.57l0 -840.04 199.12 0c234.38,0 404.46,184.6 404.46,418.98 0,236.45 -170.08,421.06 -404.46,421.06l-199.12 0zm1036.33 -216.13c0,299.38 234.3,546.69 544.08,546.69 164,0 294.17,-57.27 385.28,-148.39 23.43,-23.43 18.22,-54.67 2.6,-75.49l-130.16 -156.2c-15.62,-18.22 -41.65,-18.22 -65.08,0 -41.65,31.24 -117.15,62.48 -182.23,62.48 -135.37,0 -192.64,-101.52 -200.45,-171.81l624.78 0c23.43,0 46.86,-18.22 49.46,-44.25 2.6,-18.22 5.2,-52.07 5.2,-70.29 0,-286.36 -229.09,-489.41 -494.62,-489.41 -307.19,0 -538.88,252.52 -538.88,546.68zm387.89 -145.78c10.41,-67.69 70.29,-122.35 140.58,-122.35 67.69,0 132.76,54.67 137.97,122.35l-278.55 0z"/>
   <path class="fil4" d="M1083.33 4852.14c0,82.35 66.29,147.81 148.63,147.81 36.65,0 72.06,-12.76 100.05,-39.94 2.88,-2.88 3.3,-8.24 0.41,-11.12l-32.12 -34.17c-2.47,-2.88 -7.82,-2.88 -10.7,-0.41 -14.82,12.76 -35.82,19.76 -55.17,19.76 -46.53,0 -81.11,-37.88 -81.11,-83.58 0,-46.11 34.17,-84.82 80.7,-84.82 20.18,0 40.35,7.41 55.58,21 2.88,2.88 7.41,2.88 10.3,0l32.11 -33.35c3.3,-3.3 3.3,-8.24 -0.41,-11.53 -28,-25.53 -58.46,-38.29 -99.64,-38.29 -82.35,0 -148.63,66.29 -148.63,148.63zm252.76 61.35c0,47.35 37.06,86.46 86.05,86.46 25.94,0 46.52,-9.06 60.94,-23.47 3.7,-3.7 2.88,-8.65 0.41,-11.94l-20.59 -24.7c-2.47,-2.88 -6.59,-2.88 -10.29,0 -6.59,4.94 -18.53,9.88 -28.82,9.88 -21.41,0 -30.47,-16.06 -31.7,-27.17l98.81 0c3.7,0 7.41,-2.88 7.82,-7 0.41,-2.88 0.82,-8.23 0.82,-11.12 0,-45.29 -36.23,-77.4 -78.23,-77.4 -48.59,0 -85.23,39.94 -85.23,86.46zm61.35 -23.06c1.65,-10.7 11.12,-19.35 22.23,-19.35 10.7,0 21,8.65 21.82,19.35l-44.06 0zm118.94 97.58c0,4.12 3.7,7.82 7.82,7.82l43.23 0c5.76,0 7.41,-4.12 7.41,-7.82l0 -79.05c0,-16.88 14.82,-28.82 31.29,-28.82 18.53,0 28,14.41 28,30.88l0 76.99c0,4.12 3.29,7.82 7.82,7.82l44.06 0c4.12,0 7.82,-3.7 7.82,-7.82l0 -74.93c0,-46.94 -27.17,-86.05 -78.23,-86.05 -30.06,0 -49,15.65 -58.06,25.53l-6.59 -16.47c-1.24,-2.88 -4.94,-4.94 -7.41,-4.94l-19.35 0c-4.12,0 -7.82,3.3 -7.82,7.82l0 149.05zm209.94 -45.29c0,37.47 18.11,57.23 49.41,57.23 20.59,0 49.82,-9.06 49.82,-9.06 4.12,-1.24 6.18,-5.76 5.35,-9.47l-9.06 -34.17c-1.24,-4.53 -4.94,-6.18 -9.06,-5.35 -4.12,0.82 -10.29,2.88 -16.06,2.88 -4.94,0 -11.12,-0.82 -11.12,-9.88l0 -51.46 30.47 0c4.53,0 7.82,-3.7 7.82,-7.82l0 -36.65c0,-4.53 -3.3,-7.82 -7.82,-7.82l-30.47 0 0 -45.7c0,-4.12 -3.3,-7.82 -7.41,-7.82l-44.05 0c-4.12,0 -7.82,3.7 -7.82,7.82l0 45.7 -10.71 0c-4.11,0 -7.41,3.3 -7.41,7.82l0 36.65c0,4.12 3.3,7.82 7.41,7.82l10.71 0 0 59.29zm109.88 -29.23c0,47.35 37.06,86.46 86.05,86.46 25.94,0 46.52,-9.06 60.94,-23.47 3.7,-3.7 2.88,-8.65 0.41,-11.94l-20.59 -24.7c-2.47,-2.88 -6.59,-2.88 -10.29,0 -6.59,4.94 -18.53,9.88 -28.82,9.88 -21.41,0 -30.47,-16.06 -31.7,-27.17l98.81 0c3.7,0 7.41,-2.88 7.82,-7 0.41,-2.88 0.82,-8.23 0.82,-11.12 0,-45.29 -36.23,-77.4 -78.23,-77.4 -48.59,0 -85.23,39.94 -85.23,86.46zm61.35 -23.06c1.65,-10.7 11.12,-19.35 22.23,-19.35 10.7,0 21,8.65 21.82,19.35l-44.06 0zm118.94 97.58c0,4.12 3.7,7.82 7.82,7.82l42 0c6.59,0 9.06,-2.88 9.06,-7.82l0 -85.23c0,-14 9.47,-23.47 21.82,-23.47 3.7,0 7.82,1.24 9.88,2.06 4.53,1.65 7.41,-0.82 9.06,-3.7l20.18 -32.94c5.76,-9.47 -10.3,-17.7 -32.94,-17.7 -21.41,0 -36.64,15.23 -44.88,27.17l-7.41 -18.12c-1.24,-2.47 -2.88,-4.94 -7.41,-4.94l-19.35 0c-4.12,0 -7.82,3.3 -7.82,7.82l0 149.05zm228.87 0c0,4.12 3.71,7.82 7.82,7.82l47.35 0c4.12,0 7.82,-3.7 7.82,-7.82l0 -104.58 37.88 0c4.53,0 7.82,-3.7 7.82,-7.82l0 -36.65c0,-4.53 -3.29,-7.82 -7.82,-7.82l-37.88 0 0 -37.88c0,-20.17 7,-34.17 24.29,-34.17 8.24,0 16.06,3.7 21.41,6.59 3.3,1.65 8.24,0 9.47,-2.88l17.29 -34.17c1.65,-2.88 0.82,-7.41 -1.65,-9.47 -7,-6.59 -28.82,-15.65 -50.23,-15.65 -47.76,0 -83.58,32.11 -83.58,89.76l0 37.88 -8.65 0c-4.53,0 -7.82,3.3 -7.82,7.82l0 36.65c0,4.12 3.3,7.82 7.82,7.82l8.65 0 0 104.58zm112.35 -74.93c0,47.35 38.7,86.87 85.64,86.87 46.94,0 85.64,-39.53 85.64,-86.87 0,-46.53 -38.7,-86.05 -85.64,-86.05 -46.94,0 -85.64,39.52 -85.64,86.05zm53.11 0c0,-18.12 14.41,-32.94 32.53,-32.94 18.11,0 32.52,14.82 32.52,32.94 0,18.53 -14.41,33.76 -32.52,33.76 -18.12,0 -32.53,-15.23 -32.53,-33.76zm137.06 74.93c0,4.12 3.7,7.82 7.82,7.82l42 0c6.59,0 9.06,-2.88 9.06,-7.82l0 -85.23c0,-14 9.47,-23.47 21.82,-23.47 3.7,0 7.82,1.24 9.88,2.06 4.53,1.65 7.41,-0.82 9.06,-3.7l20.18 -32.94c5.76,-9.47 -10.3,-17.7 -32.94,-17.7 -21.41,0 -36.64,15.23 -44.88,27.17l-7.41 -18.12c-1.24,-2.47 -2.88,-4.94 -7.41,-4.94l-19.35 0c-4.12,0 -7.82,3.3 -7.82,7.82l0 149.05zm233.41 0c0,4.12 3.29,7.82 7.41,7.82l100.46 0c79.46,0 144.52,-64.64 144.52,-144.52 0,-79.05 -65.06,-143.69 -144.52,-143.69l-100.46 0c-4.12,0 -7.41,3.7 -7.41,7.82l0 272.56zm64.23 -53.11l0 -166.75 39.53 0c46.52,0 80.29,36.64 80.29,83.17 0,46.94 -33.76,83.58 -80.29,83.58l-39.53 0zm235.05 -153.57c18.11,0 32.94,-14.41 32.94,-32.52 0,-18.12 -14.82,-32.94 -32.94,-32.94 -18.12,0 -32.53,14.82 -32.53,32.94 0,18.11 14.41,32.52 32.53,32.52zm-30.06 206.69c0,4.12 3.7,7.82 7.82,7.82l45.29 0c4.12,0 7.82,-3.7 7.82,-7.82l0 -149.05c0,-4.53 -3.7,-7.82 -7.82,-7.82l-45.29 0c-4.12,0 -7.82,3.3 -7.82,7.82l0 149.05zm86.83 -1.65c8.24,6.59 28.82,13.59 56,13.59 46.52,0 69.58,-23.47 69.58,-52.29 0,-32.94 -23.06,-46.11 -56.41,-57.64 -14,-4.94 -18.53,-9.06 -18.53,-13.17 0,-4.53 3.71,-5.76 9.06,-5.76 16.06,0 35,9.47 35,9.47 3.3,1.24 7.41,0 8.65,-2.47l15.24 -28c2.47,-4.12 -0.41,-7.82 -4.12,-10.29 -9.06,-5.77 -28.82,-12.76 -54.76,-12.76 -44.46,0 -64.23,22.23 -64.23,49.82 0,25.53 14,44.06 46.11,55.17 21,7.41 23.47,13.18 23.47,17.3 0,4.94 -3.71,7.41 -7.82,7.41 -17.7,0 -37.06,-10.7 -37.06,-10.7 -3.3,-1.65 -7.41,0.82 -8.65,3.3l-14.41 28.41c-2.06,3.7 0,6.17 2.88,8.65zm152.3 -43.65c0,37.47 18.11,57.23 49.41,57.23 20.59,0 49.82,-9.06 49.82,-9.06 4.12,-1.24 6.18,-5.76 5.35,-9.47l-9.06 -34.17c-1.24,-4.53 -4.94,-6.18 -9.06,-5.35 -4.12,0.82 -10.29,2.88 -16.06,2.88 -4.94,0 -11.12,-0.82 -11.12,-9.88l0 -51.46 30.47 0c4.53,0 7.82,-3.7 7.82,-7.82l0 -36.65c0,-4.53 -3.3,-7.82 -7.82,-7.82l-30.47 0 0 -45.7c0,-4.12 -3.3,-7.82 -7.41,-7.82l-44.05 0c-4.12,0 -7.82,3.7 -7.82,7.82l0 45.7 -10.71 0c-4.11,0 -7.41,3.3 -7.41,7.82l0 36.65c0,4.12 3.3,7.82 7.41,7.82l10.71 0 0 59.29zm111.12 2.88c0,32.53 24.29,54.35 56.82,54.35 25.94,0 40.35,-11.94 49.82,-20.59l5.76 11.11c2.06,4.53 4.94,5.35 7.41,5.35l18.12 0c4.11,0 7.82,-3.7 7.82,-7.82l0 -90.99c0,-48.58 -18.53,-69.99 -69.58,-69.99 -22.24,0 -51.06,4.94 -54.76,6.17 -3.7,1.24 -7.41,4.12 -6.18,11.12l3.7 25.94c0.82,6.18 3.7,10.7 9.88,8.65 10.7,-3.3 30.06,-6.18 41.17,-6.18 19.76,0 22.23,8.23 22.23,24.29 0,0 -13.17,-6.59 -31.7,-6.59 -37.47,0 -60.52,23.47 -60.52,55.17l0 0zm53.52 -4.11c0,-9.47 7.82,-17.3 17.7,-17.3 9.88,0 17.7,7.82 18.11,17.3 0,9.88 -8.23,18.11 -18.11,18.11 -9.88,0 -17.7,-8.24 -17.7,-18.11l0 0zm121.41 46.52c0,4.12 3.7,7.82 7.82,7.82l43.23 0c5.76,0 7.41,-4.12 7.41,-7.82l0 -79.05c0,-16.88 14.82,-28.82 31.29,-28.82 18.53,0 28,14.41 28,30.88l0 76.99c0,4.12 3.29,7.82 7.82,7.82l44.06 0c4.12,0 7.82,-3.7 7.82,-7.82l0 -74.93c0,-46.94 -27.17,-86.05 -78.23,-86.05 -30.06,0 -49,15.65 -58.06,25.53l-6.59 -16.47c-1.24,-2.88 -4.94,-4.94 -7.41,-4.94l-19.35 0c-4.12,0 -7.82,3.3 -7.82,7.82l0 149.05zm191.82 -74.52c0,49.41 41.59,86.46 88.52,86.46 29.64,0 51.06,-11.53 66.29,-34.59 2.88,-4.12 0.82,-8.23 -2.88,-11.53l-24.7 -21.41c-2.47,-2.06 -6.17,-1.24 -9.06,1.65 -6.59,6.59 -13.59,12.76 -28,12.76 -18.11,0 -32.11,-14.82 -32.11,-33.35 0,-18.11 14.82,-33.35 32.94,-33.35 9.47,0 18.12,4.53 23.88,10.7 2.06,2.06 7,2.88 9.06,0.83l24.7 -23.47c3.71,-3.3 4.94,-7.82 2.06,-11.53 -15.65,-18.94 -35.82,-29.64 -61.76,-29.64 -46.94,0 -88.93,37.88 -88.93,86.46zm160.53 0c0,47.35 37.06,86.46 86.05,86.46 25.94,0 46.52,-9.06 60.94,-23.47 3.7,-3.7 2.88,-8.65 0.41,-11.94l-20.59 -24.7c-2.47,-2.88 -6.59,-2.88 -10.29,0 -6.59,4.94 -18.53,9.88 -28.82,9.88 -21.41,0 -30.47,-16.06 -31.7,-27.17l98.81 0c3.7,0 7.41,-2.88 7.82,-7 0.41,-2.88 0.82,-8.23 0.82,-11.12 0,-45.29 -36.23,-77.4 -78.23,-77.4 -48.59,0 -85.23,39.94 -85.23,86.46zm61.35 -23.06c1.65,-10.7 11.12,-19.35 22.23,-19.35 10.7,0 21,8.65 21.82,19.35l-44.06 0zm216.52 31.29c0,42.82 37.88,78.23 90.58,78.23 61.76,0 89.76,-31.7 89.76,-31.7l26.76 26.76c6.59,6.59 13.59,5.76 18.53,1.24l23.06 -23.47c10.3,-10.3 6.18,-14 0.82,-18.94l-35 -32.53c0,-0.82 16.06,-22.65 25.94,-51.46 1.65,-4.94 6.17,-14.82 -5.35,-18.94l-30.06 -10.7c-11.12,-4.12 -13.59,2.47 -16.06,11.12 -2.88,9.88 -8.23,23.06 -13.59,31.7l-37.06 -37.88c0,-3.3 44.88,-27.59 44.88,-72.87 0,-38.29 -35.41,-68.76 -82.35,-68.76 -52.7,0 -79.87,35.41 -79.87,66.7 0,23.88 10.7,41.58 27.17,58.88l8.24 8.65 0 1.23c0,0 -56.41,23.47 -56.41,82.76zm103.75 -110.76l-9.06 -9.06c-10.7,-11.94 -18.94,-19.76 -18.94,-32.11 0,-10.7 9.06,-20.17 24.29,-20.17 17.7,0 30.47,12.35 30.47,26.35 0,23.06 -26.76,35 -26.76,35l0 0zm-44.88 102.52c0,-33.35 29.23,-43.23 29.23,-43.23l53.94 57.23c0,0 -12.35,21 -44.46,21 -21.82,0 -38.7,-15.23 -38.7,-35zm288.17 0c0,47.35 37.06,86.46 86.05,86.46 25.94,0 46.52,-9.06 60.94,-23.47 3.7,-3.7 2.88,-8.65 0.41,-11.94l-20.59 -24.7c-2.47,-2.88 -6.59,-2.88 -10.29,0 -6.59,4.94 -18.53,9.88 -28.82,9.88 -21.41,0 -30.47,-16.06 -31.7,-27.17l98.81 0c3.7,0 7.41,-2.88 7.82,-7 0.41,-2.88 0.82,-8.23 0.82,-11.12 0,-45.29 -36.23,-77.4 -78.23,-77.4 -48.59,0 -85.23,39.94 -85.23,86.46zm61.35 -23.06c1.65,-10.7 11.12,-19.35 22.23,-19.35 10.7,0 21,8.65 21.82,19.35l-44.06 0zm123.47 32.11l94.28 0c4.53,0 7.82,-3.3 7.82,-7.41l0 -37.47c0,-4.53 -3.29,-7.82 -7.82,-7.82l-94.28 0c-4.53,0 -7.82,3.29 -7.82,7.82l0 37.47c0,4.11 3.29,7.41 7.82,7.41zm130.47 65.46c0,4.12 3.7,7.82 7.82,7.82l45.29 0c4.12,0 7.82,-3.7 7.82,-7.82l0 -272.56c0,-4.12 -3.7,-7.82 -7.82,-7.82l-45.29 0c-4.12,0 -7.82,3.7 -7.82,7.82l0 272.56zm80.24 -74.52c0,47.35 37.06,86.46 86.05,86.46 25.94,0 46.52,-9.06 60.94,-23.47 3.7,-3.7 2.88,-8.65 0.41,-11.94l-20.59 -24.7c-2.47,-2.88 -6.59,-2.88 -10.29,0 -6.59,4.94 -18.53,9.88 -28.82,9.88 -21.41,0 -30.47,-16.06 -31.7,-27.17l98.81 0c3.7,0 7.41,-2.88 7.82,-7 0.41,-2.88 0.82,-8.23 0.82,-11.12 0,-45.29 -36.23,-77.4 -78.23,-77.4 -48.59,0 -85.23,39.94 -85.23,86.46zm61.35 -23.06c1.65,-10.7 11.12,-19.35 22.23,-19.35 10.7,0 21,8.65 21.82,19.35l-44.06 0zm107.83 55.17c0,32.53 24.29,54.35 56.82,54.35 25.94,0 40.35,-11.94 49.82,-20.59l5.76 11.11c2.06,4.53 4.94,5.35 7.41,5.35l18.12 0c4.11,0 7.82,-3.7 7.82,-7.82l0 -90.99c0,-48.58 -18.53,-69.99 -69.58,-69.99 -22.24,0 -51.06,4.94 -54.76,6.17 -3.7,1.24 -7.41,4.12 -6.18,11.12l3.7 25.94c0.82,6.18 3.7,10.7 9.88,8.65 10.7,-3.3 30.06,-6.18 41.17,-6.18 19.76,0 22.23,8.23 22.23,24.29 0,0 -13.17,-6.59 -31.7,-6.59 -37.47,0 -60.52,23.47 -60.52,55.17l0 0zm53.52 -4.11c0,-9.47 7.82,-17.3 17.7,-17.3 9.88,0 17.7,7.82 18.11,17.3 0,9.88 -8.23,18.11 -18.11,18.11 -9.88,0 -17.7,-8.24 -17.7,-18.11l0 0zm121.41 46.52c0,4.12 3.7,7.82 7.82,7.82l42 0c6.59,0 9.06,-2.88 9.06,-7.82l0 -85.23c0,-14 9.47,-23.47 21.82,-23.47 3.7,0 7.82,1.24 9.88,2.06 4.53,1.65 7.41,-0.82 9.06,-3.7l20.18 -32.94c5.76,-9.47 -10.3,-17.7 -32.94,-17.7 -21.41,0 -36.64,15.23 -44.88,27.17l-7.41 -18.12c-1.24,-2.47 -2.88,-4.94 -7.41,-4.94l-19.35 0c-4.12,0 -7.82,3.3 -7.82,7.82l0 149.05zm129.24 0c0,4.12 3.7,7.82 7.82,7.82l43.23 0c5.76,0 7.41,-4.12 7.41,-7.82l0 -79.05c0,-16.88 14.82,-28.82 31.29,-28.82 18.53,0 28,14.41 28,30.88l0 76.99c0,4.12 3.29,7.82 7.82,7.82l44.06 0c4.12,0 7.82,-3.7 7.82,-7.82l0 -74.93c0,-46.94 -27.17,-86.05 -78.23,-86.05 -30.06,0 -49,15.65 -58.06,25.53l-6.59 -16.47c-1.24,-2.88 -4.94,-4.94 -7.41,-4.94l-19.35 0c-4.12,0 -7.82,3.3 -7.82,7.82l0 149.05zm234.64 -206.69c18.11,0 32.94,-14.41 32.94,-32.52 0,-18.12 -14.82,-32.94 -32.94,-32.94 -18.12,0 -32.53,14.82 -32.53,32.94 0,18.11 14.41,32.52 32.53,32.52zm-30.06 206.69c0,4.12 3.7,7.82 7.82,7.82l45.29 0c4.12,0 7.82,-3.7 7.82,-7.82l0 -149.05c0,-4.53 -3.7,-7.82 -7.82,-7.82l-45.29 0c-4.12,0 -7.82,3.3 -7.82,7.82l0 149.05zm92.59 0c0,4.12 3.7,7.82 7.82,7.82l43.23 0c5.76,0 7.41,-4.12 7.41,-7.82l0 -79.05c0,-16.88 14.82,-28.82 31.29,-28.82 18.53,0 28,14.41 28,30.88l0 76.99c0,4.12 3.29,7.82 7.82,7.82l44.06 0c4.12,0 7.82,-3.7 7.82,-7.82l0 -74.93c0,-46.94 -27.17,-86.05 -78.23,-86.05 -30.06,0 -49,15.65 -58.06,25.53l-6.59 -16.47c-1.24,-2.88 -4.94,-4.94 -7.41,-4.94l-19.35 0c-4.12,0 -7.82,3.3 -7.82,7.82l0 149.05zm186.88 -7c0,32.53 26.35,44.06 31.7,45.7l0 1.24c-4.53,2.47 -25.11,14.82 -25.11,39.53 0,25.94 22.23,55.99 86.05,55.99 65.05,0 92.64,-32.11 92.64,-71.64 0,-36.65 -32.11,-60.11 -70.82,-60.11l-49.41 0c-6.18,0 -13.18,-3.29 -13.18,-11.11 0,-6.59 4.94,-11.12 13.59,-11.12l29.65 0c43.64,0 71.23,-32.11 71.23,-62.17 0,-27.18 -15.65,-39.94 -15.65,-39.94l23.88 -8.65c2.47,-1.24 4.53,-4.12 4.53,-7l0 -16.88c0,-4.53 -3.29,-7.82 -7.82,-7.82l-77.81 0c-39.94,0 -72.46,32.94 -72.46,71.23 0,25.11 11.94,37.46 11.94,37.46 0,0 -32.94,12.76 -32.94,45.29zm73.29 -79.05c0,-12.35 9.47,-21.41 21.82,-21.41 12.76,0 21.82,9.06 21.82,21.41 0,12.35 -9.06,21.41 -21.82,21.41 -12.35,0 -21.82,-9.06 -21.82,-21.41zm-10.29 153.99c0,-11.94 14.82,-17.3 29.65,-17.3 22.23,0 29.64,8.65 29.64,17.3 0,11.11 -9.06,19.35 -29.64,19.35 -19.76,0 -29.65,-7.82 -29.65,-19.35z"/>
   <rect class="fil5" x="2865.42" y="6092.61" width="1626.52" height="101.35"/>
  </g>
 </g>
</svg>
